<mxfile host="app.diagrams.net" modified="2023-04-23T08:20:55.951Z" agent="Mozilla/5.0 (Windows NT 10.0; Win64; x64) AppleWebKit/537.36 (KHTML, like Gecko) Chrome/112.0.0.0 Safari/537.36" version="21.1.9" etag="LaJAbt7yM-iJKas78e9R" type="github">
  <diagram name="第 1 页" id="HP0b6ugJYNRQwOyptgga">
    <mxGraphModel>
      <root>
        <mxCell id="0" />
        <mxCell id="1" parent="0" />
      </root>
    </mxGraphModel>
  </diagram>
</mxfile>
